Coordinates
version=1
nRows=9
nColumns=42
inDegrees=yes

Units are S.I. units (second, meters, Newtons, ...)
If the header above contains a line with 'inDegrees', this indicates whether rotational values are in degrees (yes) or radians (no).

endheader
time	pelvis_tilt	pelvis_list	pelvis_rotation	pelvis_tx	pelvis_ty	pelvis_tz	hip_flexion_r	hip_adduction_r	hip_rotation_r	knee_angle_r	knee_adduction_r	knee_angle_r_beta	ankle_angle_r	subtalar_angle_r	mtp_angle_r	hip_flexion_l	hip_adduction_l	hip_rotation_l	knee_angle_l	knee_adduction_l	knee_angle_l_beta	ankle_angle_l	subtalar_angle_l	mtp_angle_l	lumbar_extension	lumbar_bending	lumbar_rotation	arm_flex_r	arm_add_r	arm_rot_r	elbow_flex_r	pro_sup_r	wrist_flex_r	wrist_dev_r	arm_flex_l	arm_add_l	arm_rot_l	elbow_flex_l	pro_sup_l	wrist_flex_l	wrist_dev_l
      1.32000000	     20.63758781	      3.40407003	      2.76631755	      0.02616831	      0.93616274	     -0.26148485	    -22.00106115	     -8.52772464	    -21.88533746	     54.64573158	     -8.45273335	      0.95374794	     -1.30330527	     14.05351514	     -7.70627649	     -7.17793547	      8.45792659	     -6.19194055	     24.57393989	     -5.74188673	      0.42889616	     17.93284846	      3.03879200	     -7.70627649	    -33.03591108	     -4.09983804	      4.72229971	      9.64624755	    -11.41331917	    -22.74877857	     29.00006747	     90.00000001	      0.00000000	      0.00000000	     -1.89118202	    -16.76037694	      3.63243372	     68.33221631	     90.00000001	      0.00000000	      0.00000000
      1.33000000	     20.62162207	      3.29795615	      2.82601923	      0.03117049	      0.93641109	     -0.26345451	    -20.84507976	     -8.66408473	    -21.12195144	     56.70102655	     -8.09386787	      0.98961960	     -0.64060554	     11.11130042	     -7.69720106	     -7.38864239	      8.44709761	     -6.01728020	     24.88682866	     -5.71124882	      0.43435710	     18.20718873	      2.82369016	     -7.69720106	    -33.12059265	     -3.99463867	      4.66538074	      9.28943496	    -11.47548291	    -23.55531356	     28.66073673	     90.00000001	      0.00000000	      0.00000000	     -1.69797791	    -16.86785497	      3.75075916	     68.49096939	     90.00000001	      0.00000000	      0.00000000
      1.34000000	     20.77645158	      3.12564452	      2.79277407	      0.03617149	      0.93703475	     -0.26514252	    -19.85268461	     -8.61522989	    -20.96762725	     58.31348691	     -8.49340964	      1.01776234	      0.36108485	      9.49923145	     -7.69153628	     -7.93451829	      8.28702240	     -5.60554540	     24.90450184	     -5.37308573	      0.43466556	     18.47897914	      2.43369338	     -7.69153628	    -33.38615013	     -3.86235019	      4.71549394	      8.89942138	    -11.60252916	    -24.06963424	     28.44413758	     90.00000001	      0.00000000	      0.00000000	     -1.50421327	    -16.94602670	      3.74027896	     68.72139550	     90.00000001	      0.00000000	      0.00000000
      1.35000000	     20.85499643	      3.05120954	      2.69073548	      0.04092054	      0.93759685	     -0.26673327	    -18.72678899	     -8.74892168	    -20.51945882	     59.95374269	     -8.46676575	      1.04639021	      1.42896572	      7.17193647	     -7.67911233	     -8.46833795	      8.30126926	     -4.62803637	     24.80661740	     -4.88573319	      0.43295715	     18.28175239	      0.86189895	     -7.67911233	    -33.58958337	     -3.86587326	      4.75942791	      8.70138538	    -11.58927284	    -25.39833647	     28.00850690	     90.00000001	      0.00000000	      0.00000000	     -1.27462214	    -17.03722479	      3.77336171	     68.89591177	     90.00000001	      0.00000000	      0.00000000
      1.36000000	     21.10154757	      2.83769160	      2.61456508	      0.04582219	      0.93840270	     -0.26811459	    -17.82592643	     -8.56160957	    -20.83906322	     61.05798379	     -9.27286232	      1.06566285	      2.99714196	      6.31594796	     -7.67605537	     -9.16349069	      8.08660569	     -4.21122786	     24.69453160	     -4.55010424	      0.43100088	     18.55540132	      0.63601972	     -7.67605537	    -33.93532982	     -3.72790859	      4.82216903	      8.31228763	    -11.70559826	    -25.61494178	     27.84910286	     90.00000001	      0.00000000	      0.00000000	     -1.09860806	    -17.11922209	      3.71521729	     69.11004247	     90.00000001	      0.00000000	      0.00000000
      1.37000000	     21.27307413	      2.66051738	      2.52870886	      0.05051568	      0.93908582	     -0.26947938	    -16.80745564	     -8.41431942	    -21.17310859	     62.03417957	    -10.03748682	      1.08270068	      4.64512285	      5.45341085	     -7.67329681	     -9.77485295	      7.94466708	     -3.74198908	     24.56181979	     -4.24327545	      0.42868463	     18.73821762	      0.21058368	     -7.67329681	    -34.22457209	     -3.63077417	      4.86799882	      7.96218968	    -11.82241957	    -25.86850094	     27.65912301	     90.00000001	      0.00000000	      0.00000000	     -0.91017716	    -17.22092023	      3.67329923	     69.31152748	     90.00000001	      0.00000000	      0.00000000
      1.38000000	     21.30951535	      2.77268392	      2.49753946	      0.05483321	      0.93961625	     -0.27125440	    -15.61782601	     -8.67462180	    -21.52297032	     63.00354007	    -10.57109126	      1.09961921	      6.27469224	      4.77233415	     -7.66278374	    -10.38731256	      8.21910972	     -2.24890644	     24.16921683	     -3.71221299	      0.42183241	     18.06297278	     -2.17605429	     -7.66278374	    -34.43093743	     -3.76402813	      4.68613802	      7.88704870	    -11.76847740	    -27.30518371	     27.24112949	     90.00000001	      0.00000000	      0.00000000	     -0.70605415	    -17.36653127	      3.70751219	     69.44450317	     90.00000001	      0.00000000	      0.00000000
      1.39000000	     21.52114109	      2.56266886	      2.40431148	      0.05935014	      0.94043542	     -0.27241515	    -14.65768880	     -8.36969392	    -21.73584781	     63.46190052	    -11.24028226	      1.10761911	      7.88728192	      4.23832304	     -7.66020253	    -11.08440409	      8.02481898	     -2.02943471	     23.86491835	     -3.49874504	      0.41652140	     18.23096700	     -2.27226451	     -7.66020253	    -34.76881416	     -3.65044926	      4.71490338	      7.58446730	    -11.85041581	    -27.51672858	     27.05952640	     90.00000001	      0.00000000	      0.00000000	     -0.52600175	    -17.46310604	      3.62272555	     69.59363004	     90.00000001	      0.00000000	      0.00000000
      1.40000000	     21.59493712	      2.53605420	      2.37730371	      0.06368674	      0.94099111	     -0.27391462	    -13.54572320	     -8.30862181	    -22.09540444	     63.81360935	    -11.90021881	      1.11375759	      9.60099182	      4.32477063	     -7.65362527	    -11.67357276	      8.09769801	     -1.41251800	     23.48669656	     -3.27674383	      0.40992019	     18.12445585	     -2.92973569	     -7.65362527	    -34.97767640	     -3.66222128	      4.57645603	      7.40517694	    -11.85524877	    -28.32592228	     26.78429700	     90.00000001	      0.00000000	      0.00000000	     -0.38833746	    -17.58326561	      3.60364124	     69.73907202	     90.00000001	      0.00000000	      0.00000000
